<svg width="1527" height="236" viewBox="0 0 1527 236" fill="none" xmlns="http://www.w3.org/2000/svg">
<path d="M156.842 0V156.976H0C0 156.976 0 137.333 0 117.774C0 98.2148 0 78.4041 0 78.4041L78.4213 0H156.842Z" fill="#0E0C0C"/>
<path d="M235.155 78.4863V156.974L156.818 235.379H78.3965V78.4863H235.155Z" fill="#FF622B"/>
<g style="mix-blend-mode:multiply">
<path d="M156.787 78.4863H78.3652V156.974H156.787V78.4863Z" fill="#FF622B"/>
</g>
<path d="M1465.32 213.823C1452.21 213.823 1440.36 210.905 1429.79 205.069C1419.41 199.051 1411.11 190.843 1404.91 180.447C1398.9 170.052 1395.9 158.379 1395.9 145.43C1395.9 132.481 1398.9 120.9 1404.91 110.687C1410.93 100.291 1419.04 92.0832 1429.24 86.065C1439.63 80.0464 1451.11 77.0371 1463.69 77.0371C1475.89 77.0371 1486.64 79.864 1495.94 85.5178C1505.42 91.1718 1512.8 98.9227 1518.08 108.772C1523.55 118.62 1526.28 129.837 1526.28 142.421C1526.28 144.61 1526.1 146.889 1525.74 149.26C1525.55 151.449 1525.18 153.911 1524.64 156.647H1416.95V132.025H1509.06L1497.85 141.874C1497.49 133.849 1495.94 127.101 1493.21 121.63C1490.47 116.158 1486.55 111.964 1481.45 109.045C1476.54 106.127 1470.43 104.668 1463.14 104.668C1455.49 104.668 1448.83 106.31 1443.18 109.592C1437.54 112.875 1433.16 117.526 1430.07 123.545C1426.97 129.381 1425.42 136.402 1425.42 144.61C1425.42 152.817 1427.05 160.021 1430.34 166.222C1433.62 172.423 1438.27 177.256 1444.28 180.721C1450.29 184.004 1457.22 185.645 1465.05 185.645C1471.8 185.645 1477.99 184.46 1483.64 182.089C1489.47 179.718 1494.39 176.252 1498.4 171.693L1517.54 191.117C1511.15 198.595 1503.41 204.249 1494.3 208.079C1485.18 211.908 1475.53 213.823 1465.32 213.823Z" fill="#0E0C0C"/>
<path d="M1329.81 213.823C1322.53 213.823 1315.51 212.912 1308.77 211.088C1302.02 209.082 1295.84 206.346 1290.19 202.88C1284.53 199.233 1279.61 194.856 1275.42 189.749L1294.55 170.599C1299.11 175.888 1304.31 179.901 1310.14 182.636C1316.15 185.19 1322.89 186.466 1330.37 186.466C1337.11 186.466 1342.21 185.463 1345.67 183.457C1349.13 181.45 1350.86 178.532 1350.86 174.702C1350.86 170.69 1349.23 167.589 1345.94 165.401C1342.66 163.212 1338.38 161.389 1333.1 159.93C1327.99 158.288 1322.53 156.647 1316.7 155.005C1311.05 153.364 1305.58 151.175 1300.3 148.439C1295.19 145.521 1291 141.601 1287.72 136.676C1284.45 131.752 1282.8 125.368 1282.8 117.526C1282.8 109.136 1284.72 101.932 1288.54 95.9134C1292.55 89.8948 1298.11 85.2443 1305.21 81.9614C1312.51 78.6786 1321.17 77.0371 1331.19 77.0371C1341.75 77.0371 1351.05 78.9521 1359.06 82.7821C1367.26 86.4298 1374.1 91.9927 1379.57 99.4703L1360.43 118.62C1356.6 113.878 1352.23 110.322 1347.31 107.951C1342.39 105.58 1336.74 104.395 1330.37 104.395C1324.35 104.395 1319.71 105.306 1316.42 107.13C1313.14 108.954 1311.51 111.598 1311.51 115.063C1311.51 118.712 1313.14 121.538 1316.42 123.545C1319.71 125.55 1323.9 127.284 1329 128.742C1334.28 130.201 1339.75 131.843 1345.4 133.667C1351.23 135.308 1356.7 137.679 1361.8 140.78C1367.08 143.698 1371.37 147.71 1374.65 152.817C1377.92 157.741 1379.57 164.215 1379.57 172.24C1379.57 185.007 1375.1 195.129 1366.17 202.607C1357.24 210.084 1345.12 213.823 1329.81 213.823Z" fill="#0E0C0C"/>
<path d="M1183.31 213.823C1171.46 213.823 1160.71 210.814 1151.05 204.795C1141.58 198.777 1134.02 190.661 1128.37 180.447C1122.9 170.052 1120.17 158.471 1120.17 145.704C1120.17 132.755 1122.9 121.174 1128.37 110.96C1134.02 100.564 1141.58 92.3574 1151.05 86.3385C1160.71 80.1376 1171.46 77.0371 1183.31 77.0371C1193.33 77.0371 1202.17 79.2257 1209.82 83.6028C1217.65 87.7977 1223.85 93.6336 1228.41 101.111C1232.96 108.589 1235.24 117.07 1235.24 126.554V164.307C1235.24 173.791 1232.96 182.271 1228.41 189.749C1224.03 197.226 1217.94 203.154 1210.1 207.531C1202.26 211.726 1193.33 213.823 1183.31 213.823ZM1188.23 185.372C1199.35 185.372 1208.28 181.633 1215.02 174.155C1221.94 166.678 1225.41 157.102 1225.41 145.43C1225.41 137.588 1223.85 130.658 1220.76 124.639C1217.65 118.62 1213.29 113.969 1207.63 110.687C1202.17 107.221 1195.7 105.489 1188.23 105.489C1180.94 105.489 1174.47 107.221 1168.82 110.687C1163.36 113.969 1158.98 118.62 1155.7 124.639C1152.6 130.658 1151.05 137.588 1151.05 145.43C1151.05 153.272 1152.6 160.203 1155.7 166.222C1158.98 172.24 1163.36 176.982 1168.82 180.447C1174.47 183.73 1180.94 185.372 1188.23 185.372ZM1223.49 211.088V175.797L1228.68 143.789L1223.49 112.054V79.7728H1253.56V211.088H1223.49Z" fill="#0E0C0C"/>
<path d="M1040.05 213.826C1030.03 213.826 1021.1 211.729 1013.26 207.534C1005.43 203.157 999.23 197.229 994.668 189.751C990.3 182.274 988.112 173.793 988.112 164.309V126.557C988.112 117.073 990.388 108.592 994.941 101.114C999.502 93.6363 1005.7 87.8004 1013.53 83.6055C1021.37 79.2284 1030.2 77.0398 1040.05 77.0398C1051.89 77.0398 1062.55 80.1404 1072.03 86.3413C1081.69 92.3601 1089.25 100.567 1094.71 110.963C1100.36 121.176 1103.18 132.757 1103.18 145.707C1103.18 158.474 1100.36 170.055 1094.71 180.45C1089.25 190.664 1081.69 198.779 1072.03 204.798C1062.55 210.817 1051.89 213.826 1040.05 213.826ZM969.796 211.091V14.1182H999.863V112.057L994.668 143.792L999.863 175.8V211.091H969.796ZM1035.12 185.375C1042.42 185.375 1048.79 183.733 1054.26 180.45C1059.91 176.985 1064.29 172.243 1067.38 166.224C1070.66 160.206 1072.3 153.276 1072.3 145.433C1072.3 137.59 1070.66 130.66 1067.38 124.642C1064.29 118.623 1059.91 113.972 1054.26 110.689C1048.79 107.224 1042.42 105.492 1035.12 105.492C1027.84 105.492 1021.37 107.224 1015.72 110.689C1010.07 113.972 1005.7 118.623 1002.6 124.642C999.502 130.66 997.955 137.59 997.955 145.433C997.955 153.276 999.502 160.206 1002.6 166.224C1005.7 172.243 1010.07 176.985 1015.72 180.45C1021.37 183.733 1027.84 185.375 1035.12 185.375Z" fill="#0E0C0C"/>
<path d="M906 211.092V79.7773H936.067V211.092H906ZM921.038 55.7029C915.931 55.7029 911.651 53.9702 908.188 50.505C904.91 47.0397 903.267 42.7538 903.267 37.6471C903.267 32.5404 904.91 28.2544 908.188 24.7891C911.651 21.3239 915.931 19.5913 921.038 19.5913C926.32 19.5913 930.6 21.3239 933.878 24.7891C937.165 28.2544 938.8 32.5404 938.8 37.6471C938.8 42.7538 937.165 47.0397 933.878 50.505C930.6 53.9702 926.32 55.7029 921.038 55.7029Z" fill="#0E0C0C"/>
<path d="M802.142 213.826C790.297 213.826 779.546 210.817 769.888 204.798C760.412 198.779 752.85 190.664 747.201 180.45C741.734 170.055 739.001 158.474 739.001 145.707C739.001 132.757 741.734 121.176 747.201 110.963C752.85 100.567 760.412 92.3601 769.888 86.3413C779.546 80.1404 790.297 77.0398 802.142 77.0398C812.164 77.0398 821.002 79.2284 828.655 83.6055C836.492 87.8004 842.687 93.6363 847.243 101.114C851.798 108.592 854.076 117.073 854.076 126.557V164.309C854.076 173.793 851.798 182.274 847.243 189.751C842.869 197.229 836.765 203.157 828.929 207.534C821.093 211.729 812.164 213.826 802.142 213.826ZM807.062 185.375C814.533 185.375 821.002 183.733 826.469 180.45C832.118 176.985 836.492 172.243 839.589 166.224C842.687 160.206 844.236 153.276 844.236 145.433C844.236 137.59 842.687 130.66 839.589 124.642C836.492 118.623 832.118 113.972 826.469 110.689C821.002 107.224 814.533 105.492 807.062 105.492C799.773 105.492 793.304 107.224 787.655 110.689C782.188 113.972 777.814 118.623 774.534 124.642C771.437 130.66 769.888 137.59 769.888 145.433C769.888 153.276 771.437 160.206 774.534 166.224C777.814 172.243 782.188 176.985 787.655 180.45C793.304 183.733 799.773 185.375 807.062 185.375ZM872.39 211.091H842.322V175.8L847.516 143.792L842.322 112.057V14.1182H872.39V211.091Z" fill="#0E0C0C"/>
<path d="M662.122 213.823C649.002 213.823 637.157 210.905 626.588 205.069C616.201 199.051 607.91 190.843 601.714 180.447C595.701 170.052 592.694 158.379 592.694 145.43C592.694 132.481 595.701 120.9 601.714 110.687C607.728 100.291 615.836 92.0832 626.041 86.065C636.428 80.0464 647.909 77.0371 660.482 77.0371C672.691 77.0371 683.442 79.864 692.735 85.5178C702.212 91.1718 709.592 98.9227 714.876 108.772C720.343 118.62 723.076 129.837 723.076 142.421C723.076 144.61 722.894 146.889 722.53 149.26C722.347 151.449 721.983 153.911 721.436 156.647H613.741V132.025H705.856L694.649 141.874C694.285 133.849 692.735 127.101 690.002 121.63C687.269 116.158 683.351 111.964 678.249 109.045C673.329 106.127 667.224 104.668 659.935 104.668C652.282 104.668 645.631 106.31 639.981 109.592C634.333 112.875 629.959 117.526 626.861 123.545C623.764 129.381 622.214 136.402 622.214 144.61C622.214 152.817 623.854 160.021 627.134 166.222C630.414 172.423 635.061 177.256 641.074 180.721C647.089 184.004 654.013 185.645 661.849 185.645C668.591 185.645 674.787 184.46 680.435 182.089C686.267 179.718 691.187 176.252 695.195 171.693L714.33 191.117C707.952 198.595 700.207 204.249 691.095 208.079C681.984 211.908 672.327 213.823 662.122 213.823Z" fill="#0E0C0C"/>
<path d="M493.847 211.088V79.7728H523.914V211.088H493.847ZM523.914 138.044L513.528 132.846C513.528 116.249 517.171 102.844 524.461 92.6308C531.932 82.235 543.139 77.0371 558.081 77.0371C564.641 77.0371 570.564 78.2226 575.849 80.5935C581.132 82.9645 586.053 86.7945 590.609 92.0832L570.929 112.328C568.559 109.774 565.917 107.951 563.001 106.856C560.086 105.762 556.714 105.215 552.888 105.215C544.506 105.215 537.581 107.859 532.114 113.148C526.648 118.438 523.914 126.736 523.914 138.044Z" fill="#0E0C0C"/>
<path d="M354.322 138.865V111.508H402.156C408.716 111.508 414.456 110.231 419.376 107.678C424.478 104.942 428.488 101.203 431.403 96.4617C434.319 91.5373 435.776 85.7923 435.776 79.2265C435.776 72.6608 434.319 67.007 431.403 62.265C428.488 57.3407 424.478 53.6019 419.376 51.0486C414.456 48.3129 408.716 46.945 402.156 46.945H354.322V19.5878H403.796C415.823 19.5878 426.574 22.0499 436.05 26.9742C445.708 31.8985 453.271 38.829 458.737 47.7657C464.386 56.7024 467.211 67.1894 467.211 79.2265C467.211 91.264 464.386 101.751 458.737 110.687C453.271 119.624 445.708 126.555 436.05 131.479C426.574 136.404 415.823 138.865 403.796 138.865H354.322ZM332.729 211.089V19.5878H364.162V211.089H332.729Z" fill="#0E0C0C"/>
</svg>
