<svg viewBox="0 0 1801.68 376" xmlns="http://www.w3.org/2000/svg"><path d="m671.41 4.8c-14.15 0-25.65 11.44-25.65 25.51s11.5 25.51 25.65 25.51 25.65-11.44 25.65-25.51-11.5-25.51-25.65-25.51zm-415.3.77c-14.54 0-26.36 11.76-26.36 26.22s11.83 26.22 26.36 26.22 26.36-11.76 26.36-26.22-11.83-26.22-26.36-26.22zm-229.75 78.11c-14.54 0-26.36 11.76-26.36 26.22s11.82 26.22 26.36 26.22 26.35-11.76 26.35-26.22-11.82-26.22-26.35-26.22zm0 78.11c-14.54 0-26.36 11.76-26.36 26.22s11.82 26.2 26.36 26.2 26.35-11.76 26.35-26.2-11.82-26.22-26.35-26.22zm229.04 0c-14.54 0-26.36 11.76-26.36 26.22s11.83 26.2 26.36 26.2 26.36-11.76 26.36-26.2-11.83-26.22-26.36-26.22zm.71 78.11c-14.54 0-26.36 11.76-26.36 26.22s11.83 26.22 26.36 26.22 26.36-11.76 26.36-26.22-11.83-26.22-26.36-26.22zm-229.75 78.11c-14.54 0-26.36 11.76-26.36 26.22s11.82 26.22 26.36 26.22 26.35-11.76 26.35-26.22-11.82-26.22-26.35-26.22zm154.16-239.9c-17.62 0-31.95 14.25-31.95 31.78s14.33 31.77 31.95 31.77 31.95-14.25 31.95-31.77-14.33-31.78-31.95-31.78zm-78.56 0c-17.62 0-31.95 14.25-31.95 31.78s14.33 31.77 31.95 31.77 31.95-14.25 31.95-31.77-14.33-31.78-31.95-31.78zm78.56 78.11c-17.62 0-31.95 14.25-31.95 31.78s14.33 31.77 31.95 31.77 31.95-14.25 31.95-31.77-14.33-31.78-31.95-31.78zm-78.56 0c-17.62 0-31.95 14.25-31.95 31.78s14.33 31.77 31.95 31.77 31.95-14.25 31.95-31.77-14.33-31.78-31.95-31.78zm78.56 78.11c-17.62 0-31.95 14.25-31.95 31.77s14.33 31.79 31.95 31.79 31.95-14.25 31.95-31.79-14.33-31.77-31.95-31.77zm-78.56 0c-17.62 0-31.95 14.25-31.95 31.77s14.33 31.79 31.95 31.79 31.95-14.25 31.95-31.79-14.33-31.77-31.95-31.77zm78.56-234.33c-17.62 0-31.95 14.25-31.95 31.79s14.33 31.77 31.95 31.77 31.95-14.25 31.95-31.77-14.33-31.79-31.95-31.79zm-78.56 0c-17.62 0-31.95 14.25-31.95 31.79s14.33 31.77 31.95 31.77 31.95-14.25 31.95-31.77-14.33-31.79-31.95-31.79zm78.56 312.44c-17.62 0-31.95 14.25-31.95 31.77s14.33 31.78 31.95 31.78 31.95-14.25 31.95-31.78-14.33-31.77-31.95-31.77zm-78.56 0c-17.62 0-31.95 14.25-31.95 31.77s14.33 31.78 31.95 31.78 31.95-14.25 31.95-31.78-14.33-31.77-31.95-31.77zm400.12-173.65c0-11.12 10.74-22.25 33.55-22.25 14.32 0 25.95 4 34.45 8.9 4.91 2.67 8.95 5.78 12.53 8.9l29.08-28.92c-4.91-5.34-11.18-10.23-18.79-14.24-12.53-7.12-31.76-14.68-57.26-14.68-48.77 0-78.29 28.92-78.29 62.28 0 76.07 114.07 57.83 114.07 93.42 0 13.79-12.97 26.7-38.03 26.7-17.45 0-30.41-7.12-40.71-14.24-5.81-4-10.74-8.9-15.21-14.68l-29.08 28.92c5.81 7.56 12.97 14.24 21.48 20.02 14.32 10.23 34.89 20.02 63.53 20.02 51.89 0 82.76-31.13 82.76-66.73 0-75.62-114.07-57.83-114.07-93.42zm191.84-57.82h-44.73v213.53h44.73zm86.91 57.82c0-11.12 10.74-22.25 33.55-22.25 14.32 0 25.95 4 34.45 8.9 4.91 2.67 8.95 5.78 12.53 8.9l29.08-28.92c-4.91-5.34-11.18-10.23-18.79-14.24-12.53-7.12-31.76-14.68-57.26-14.68-48.77 0-78.29 28.92-78.29 62.28 0 76.07 114.07 57.83 114.07 93.42 0 13.79-12.97 26.7-38.03 26.7-17.44 0-30.41-7.12-40.71-14.24-5.81-4-10.74-8.9-15.21-14.68l-29.08 28.92c5.81 7.56 12.97 14.24 21.48 20.02 14.32 10.23 34.89 20.02 63.53 20.02 51.89 0 82.76-31.13 82.76-66.73 0-75.62-114.07-57.83-114.07-93.42zm246.99-62.27c-60.39 0-109.59 48.93-109.59 111.21s49.2 111.21 111.83 111.21c31.77 0 53.69-9.79 69.34-20.02 8.95-5.78 16.55-12.46 22.37-20.02l-26.84-31.13c-4.92 5.78-10.74 10.68-17.01 14.68-10.74 7.12-26.39 14.24-45.62 14.24-36.24 0-62.18-24.47-67.11-53.38h165.52l.9-6.23c.45-4 1.33-9.34 1.33-16.02 0-60.5-44.29-104.53-105.12-104.53zm-62.63 88.97c8.95-28.92 28.62-48.93 62.63-48.93 31.76 0 51.44 20.02 58.16 48.93zm484-26.7c0-11.12 10.74-22.25 33.56-22.25 14.31 0 25.95 4 34.44 8.9 4.92 2.67 8.95 5.78 12.53 8.9l29.08-28.92c-4.91-5.34-11.18-10.23-18.79-14.24-12.53-7.12-31.77-14.68-57.26-14.68-48.77 0-78.29 28.92-78.29 62.28 0 76.07 114.07 57.83 114.07 93.42 0 13.79-12.97 26.7-38.03 26.7-17.44 0-30.41-7.12-40.71-14.24-5.81-4-10.74-8.9-15.22-14.68l-29.07 28.92c5.81 7.56 12.97 14.24 21.47 20.02 14.32 10.23 34.89 20.02 63.53 20.02 51.89 0 82.76-31.13 82.76-66.73 0-75.62-114.07-57.83-114.07-93.42zm247.37-62.27c-60.38 0-109.59 48.93-109.59 111.21s49.21 111.21 111.84 111.21c31.76 0 53.68-9.79 69.33-20.02 8.95-5.78 16.55-12.46 22.38-20.02l-26.85-31.13c-4.92 5.78-10.74 10.68-17 14.68-10.74 7.12-26.4 14.24-45.63 14.24-36.24 0-62.18-24.47-67.11-53.38h165.52l.9-6.23c.45-4 1.33-9.34 1.33-16.02 0-60.5-44.29-104.53-105.12-104.53zm-62.63 88.97c8.95-28.92 28.62-48.93 62.63-48.93 31.77 0 51.44 20.02 58.16 48.93zm-367.82-89.18c-55.58 0-100.8 44.96-100.8 100.24v119.21h45.02v-119.21c0-30.6 25.03-55.49 55.8-55.49s55.8 24.89 55.8 55.49v119.21h45.01v-119.21c0-55.27-45.21-100.24-100.8-100.24z" fill="#131f29"/></svg>